<?xml version="1.0" encoding="utf-8"?>
<!-- Generator: Adobe Illustrator 19.2.1, SVG Export Plug-In . SVG Version: 6.00 Build 0)  -->
<svg version="1.1" id="Calque_1" xmlns="http://www.w3.org/2000/svg" xmlns:xlink="http://www.w3.org/1999/xlink" x="0px" y="0px"
	 viewBox="0 0 187.1 32.3" style="enable-background:new 0 0 187.1 32.3;" xml:space="preserve">
<style type="text/css">
	.st0{fill:#241C36;}
	.st1{fill:#4C436A;}
</style>
<g>
	<g>
		<g>
			<path class="st0" d="M5.9,25.5c-1.2-0.1-2.4-0.4-3.4-1c-1.2-0.7-2-1.6-2.4-2.8l2.5-0.9c0.1,0,0.3,0,0.3,0.1c0,0,0.5,0.9,1.2,1.2
				c0.6,0.3,1.3,0.5,2,0.5c1.1,0,2-0.2,2.7-0.8c0.6-0.5,0.9-1,1-1.7c0.1-1.2-1.2-2.2-3.8-2.9c-4-1.1-6-3-5.8-5.7
				C0.1,9.6,1,8.2,2.5,7.3c1.2-0.7,2.6-1,4.2-1c2,0.1,3.6,0.8,4.8,2.1l-1.9,1.8c-0.1,0.1-0.2,0.1-0.4,0c0,0-1.4-1-2.7-1.1
				C5.7,9.2,5,9.3,4.4,9.5C3.4,9.9,3,10.6,2.9,11.7c-0.1,1.2,1.2,2.1,3.8,2.8c2.3,0.6,3.9,1.6,4.9,2.9c0.7,0.9,1,1.8,0.9,2.9
				c-0.1,1.5-0.7,2.7-2,3.8c-1.2,1-2.6,1.4-4.3,1.4C6.1,25.5,6,25.5,5.9,25.5z"/>
		</g>
		<g>
			<path class="st0" d="M24.1,6.5c0.1,0,0.2,0.1,0.2,0.2v2.4c0,0.1-0.1,0.2-0.2,0.2h-6.3c-0.1,0-0.2,0.1-0.2,0.2v4.6
				c0,0.1,0.1,0.2,0.2,0.2h4.7c0.1,0,0.2,0.1,0.2,0.2v2.4c0,0.1-0.1,0.2-0.2,0.2h-4.7c-0.1,0-0.2,0.1-0.2,0.2v4.7
				c0,0.1,0.1,0.2,0.2,0.2h6.3c0.1,0,0.2,0.1,0.2,0.2v2.4c0,0.1-0.1,0.2-0.2,0.2H15c-0.1,0-0.2-0.1-0.2-0.2V6.8
				c0-0.1,0.1-0.2,0.2-0.2H24.1z"/>
		</g>
		<g>
			<path class="st0" d="M29.2,6.5c0.1,0,0.2,0.1,0.2,0.2v15.5c0,0.1,0.1,0.2,0.2,0.2H36c0.1,0,0.2,0.1,0.2,0.2v2.4
				c0,0.1-0.1,0.2-0.2,0.2h-9.1c-0.1,0-0.2-0.1-0.2-0.2V6.8c0-0.1,0.1-0.2,0.2-0.2H29.2z"/>
		</g>
		<g>
			<path class="st0" d="M41.1,6.5c0.1,0,0.2,0.1,0.2,0.2v15.5c0,0.1,0.1,0.2,0.2,0.2h6.3c0.1,0,0.2,0.1,0.2,0.2v2.4
				c0,0.1-0.1,0.2-0.2,0.2h-9.1c-0.1,0-0.2-0.1-0.2-0.2V6.8c0-0.1,0.1-0.2,0.2-0.2H41.1z"/>
		</g>
		<g>
			<path class="st0" d="M53.2,25.1c0,0.1-0.1,0.2-0.2,0.2h-2.4c-0.1,0-0.2-0.1-0.2-0.2V6.8c0-0.1,0.1-0.2,0.2-0.2H53
				c0.1,0,0.2,0.1,0.2,0.2V25.1z"/>
		</g>
		<g>
			<path class="st0" d="M69.7,6.5c0.1,0,0.2,0.1,0.2,0.2v18.3c0,0.1-0.1,0.2-0.2,0.2h-2.5c-0.1,0-0.3-0.1-0.3-0.2l-7.8-13
				C59,12,59,12,59,12.1v13c0,0.1-0.1,0.2-0.2,0.2h-2.4c-0.1,0-0.2-0.1-0.2-0.2V6.8c0-0.1,0.1-0.2,0.2-0.2h2.5
				c0.1,0,0.3,0.1,0.3,0.2l7.8,13c0.1,0.1,0.1,0.1,0.1,0v-13c0-0.1,0.1-0.2,0.2-0.2H69.7z"/>
		</g>
		<g>
			<path class="st0" d="M74.9,22.7c-1.9-1.9-2.8-4.1-2.8-6.8c0-2.6,0.9-4.9,2.8-6.8c1.9-1.9,4.1-2.8,6.8-2.8c1.3,0,2.5,0.2,3.7,0.7
				l-1,2.4c0,0.1-0.2,0.2-0.3,0.1c0,0-1.5-0.5-2.4-0.5c-1.9,0-3.4,0.7-4.7,2c-1.3,1.3-2,2.9-2,4.7c0,1.9,0.7,3.4,2,4.7
				c1.3,1.3,2.9,2,4.7,2c0.6,0,1.2-0.1,1.8-0.2v-4.9c0-0.1-0.1-0.2-0.2-0.2h-2.6c-0.1,0-0.2-0.1-0.2-0.2v-2.4c0-0.1,0.1-0.2,0.2-0.2
				h5.4c0.1,0,0.2,0.1,0.2,0.2v9.5c0,0.1-0.1,0.3-0.2,0.3l-0.4,0.2c-0.1,0-0.3,0.1-0.4,0.2c0,0-2.2,0.7-3.5,0.7
				C79.1,25.5,76.8,24.5,74.9,22.7z"/>
		</g>
		<g>
			<path class="st1" d="M102.1,6.5c0.1,0,0.2,0.1,0.2,0.2v18.3c0,0.1-0.1,0.2-0.2,0.2h-2.4c-0.1,0-0.2-0.1-0.2-0.2v-3.9
				c0-0.1-0.1-0.2-0.2-0.2h-5.9c-0.1,0-0.3,0.1-0.3,0.2l-2.5,4c-0.1,0.1-0.2,0.2-0.3,0.2h-2.9c-0.1,0-0.2-0.1-0.1-0.2L98.7,6.7
				c0.1-0.1,0.2-0.2,0.3-0.2H102.1z M95,17.9c-0.1,0.1,0,0.2,0.1,0.2h4.1c0.1,0,0.2-0.1,0.2-0.2v-6.8c0-0.1-0.1-0.1-0.1,0L95,17.9z"
				/>
		</g>
		<g>
			<path class="st1" d="M115.5,6.5c0.1,0,0.2,0.1,0.2,0.2v2.4c0,0.1-0.1,0.2-0.2,0.2h-3.5c-0.1,0-0.2,0.1-0.2,0.2v15.5
				c0,0.1-0.1,0.2-0.2,0.2h-2.4c-0.1,0-0.2-0.1-0.2-0.2V9.6c0-0.1-0.1-0.2-0.2-0.2h-3.5c-0.1,0-0.2-0.1-0.2-0.2V6.8
				c0-0.1,0.1-0.2,0.2-0.2H115.5z"/>
		</g>
		<g>
			<g>
				<path class="st0" d="M121.1,6.8c0-0.1-0.1-0.2-0.2-0.2h-2.4c-0.1,0-0.2,0.1-0.2,0.2v6.3c0,0.1,0.1,0.2,0.2,0.1l2.5-1.5
					c0.1-0.1,0.2-0.2,0.2-0.3V6.8z"/>
			</g>
			<g>
				<path class="st0" d="M129,6.5c-0.1,0-0.2,0.1-0.2,0.2v4.5c0,0.1,0.1,0.3,0.2,0.3l2.5,1.4c0.1,0.1,0.2,0,0.2-0.1V6.8
					c0-0.1-0.1-0.2-0.2-0.2H129z"/>
			</g>
			<g>
				<path class="st0" d="M131.6,13.2"/>
			</g>
			<g>
				<path class="st0" d="M128.8,15.1"/>
			</g>
			<g>
				<path class="st0" d="M121.1,15.1"/>
			</g>
		</g>
		<g>
			<path class="st0" d="M131.4,15.3c0.1,0.1,0.2,0.2,0.2,0.3v9.4c0,0.1-0.1,0.2-0.2,0.2H129c-0.1,0-0.2-0.1-0.2-0.2v-7.5
				c0-0.1-0.1-0.3-0.2-0.3l-3.3-2c-0.1-0.1-0.3-0.1-0.4,0l-3.6,2c-0.1,0.1-0.2,0.2-0.2,0.3v7.5c0,0.1-0.1,0.2-0.2,0.2h-2.4
				c-0.1,0-0.2-0.1-0.2-0.2v-9.3c0-0.1,0.1-0.3,0.2-0.3l6.4-3.8c0.1-0.1,0.3-0.1,0.4,0L131.4,15.3z"/>
		</g>
		<g>
			<path class="st0" d="M136.4,22.7c-1.9-1.9-2.8-4.1-2.8-6.8c0-2.6,0.9-4.9,2.8-6.8c1.9-1.9,4.1-2.8,6.8-2.8c2.6,0,4.9,0.9,6.8,2.8
				c1.9,1.9,2.8,4.1,2.8,6.8c0,2.6-0.9,4.9-2.8,6.8c-1.9,1.9-4.1,2.8-6.8,2.8C140.5,25.5,138.3,24.5,136.4,22.7z M138.4,11.2
				c-1.3,1.3-2,2.9-2,4.7c0,1.9,0.7,3.4,2,4.7c1.3,1.3,2.9,2,4.7,2c1.9,0,3.4-0.7,4.7-2c1.3-1.3,2-2.9,2-4.7c0-1.9-0.7-3.4-2-4.7
				c-1.3-1.3-2.9-2-4.7-2C141.3,9.2,139.7,9.8,138.4,11.2z"/>
		</g>
		<g>
			<path class="st0" d="M174.1,6.5c0.1,0,0.2,0.1,0.2,0.2v18.3c0,0.1-0.1,0.2-0.2,0.2h-2.4c-0.1,0-0.2-0.1-0.2-0.2V13.6
				c0-0.1,0-0.1-0.1,0l-5,11.5c-0.1,0.1-0.2,0.2-0.3,0.2h-2.8c-0.1,0-0.3-0.1-0.3-0.2L158,13.7c0-0.1-0.1-0.1-0.1,0v11.4
				c0,0.1-0.1,0.2-0.2,0.2h-2.4c-0.1,0-0.2-0.1-0.2-0.2V6.8c0-0.1,0.1-0.2,0.2-0.2h2.5c0.1,0,0.3,0.1,0.3,0.2l6.4,14.9
				c0,0.1,0.1,0.1,0.2,0l6.5-14.9c0-0.1,0.2-0.2,0.3-0.2H174.1z"/>
		</g>
		<g>
			<path class="st0" d="M186.9,6.5c0.1,0,0.2,0.1,0.2,0.2v2.4c0,0.1-0.1,0.2-0.2,0.2h-6.3c-0.1,0-0.2,0.1-0.2,0.2v4.6
				c0,0.1,0.1,0.2,0.2,0.2h4.7c0.1,0,0.2,0.1,0.2,0.2v2.4c0,0.1-0.1,0.2-0.2,0.2h-4.7c-0.1,0-0.2,0.1-0.2,0.2v4.7
				c0,0.1,0.1,0.2,0.2,0.2h6.3c0.1,0,0.2,0.1,0.2,0.2v2.4c0,0.1-0.1,0.2-0.2,0.2h-9.1c-0.1,0-0.2-0.1-0.2-0.2V6.8
				c0-0.1,0.1-0.2,0.2-0.2H186.9z"/>
		</g>
	</g>
</g>
</svg>
